# xmcd CD database file
#
# Track frame offsets:
#	150
#	20544
#	40655
#	61512
#	81423
#	107049
#	124437
#	150407
#	170410
#	200479
#
# Disc length: 2888 seconds
#
# Revision: 0
# Processed by: cddbd v1.5.2PL0 Copyright (c) Steve Scherf et al.
# Submitted via: CDex 1.70beta2
#
DISCID=7a0b460a
DTITLE=Nybakat! - Nybakat!
DYEAR=2007
DGENRE=Jazz
TTITLE0=Fjäriln vingad syns på Haga
TTITLE1=Kristallen den fina
TTITLE2=Midsommar i Lingbo
TTITLE3=Härlig är Jorden
TTITLE4=Det är en ros utsprungen
TTITLE5=Nu grönskar det
TTITLE6=Limu limu lima
TTITLE7=Siselspett
TTITLE8=Värvindar friska
TTITLE9=I himmelen, i himmelen
EXTD=YEAR: 2007
EXTT0=
EXTT1=
EXTT2=
EXTT3=
EXTT4=
EXTT5=
EXTT6=
EXTT7=
EXTT8=
EXTT9=
PLAYORDER=
